# xmcd CD database file
#
# Track frame offsets:
#	150
#	17295
#	34842
#	52445
#	67175
#	80472
#	95960
#	105655
#	124492
#	140105
#	155837
#	168667
#
# Disc length: 2429 seconds
#
# Revision: 0
# Processed by: cddbd v1.5PL3 Copyright (c) Steve Scherf et al.
# Submitted via: CDex 1.60beta1
#
DISCID=b9097b0c
DTITLE=Art Hodes - Hodes' Art
DYEAR=1972
DGENRE=Jazz
TTITLE0=Winin' Boy Blues
TTITLE1=Old Fashioned Love
TTITLE2=Blues Yesterday
TTITLE3=Ballin' the Jack
TTITLE4=Struttin' With Some Barbecue
TTITLE5=When My Sugar Walks Down the Street
TTITLE6=It's the Blues
TTITLE7=Winin' Boy Blues [alternate take]
TTITLE8=(Back Home Again In) Indiana
TTITLE9=Steady Roll
TTITLE10=Just a Closer Walk With Thee
TTITLE11=If I Could Be With You (One Hour Tonight)
EXTD=YEAR: 1972
EXTT0=
EXTT1=
EXTT2=
EXTT3=
EXTT4=
EXTT5=
EXTT6=
EXTT7=
EXTT8=
EXTT9=
EXTT10=
EXTT11=
PLAYORDER=
